<mxfile host="app.diagrams.net" modified="2023-04-23T09:01:44.144Z" agent="Mozilla/5.0 (Macintosh; Intel Mac OS X 10_15_7) AppleWebKit/537.36 (KHTML, like Gecko) Chrome/112.0.0.0 Safari/537.36" etag="24fJ_mqyJvt8nERNpMew" version="21.2.1" type="github">
  <diagram id="C5RBs43oDa-KdzZeNtuy" name="Page-1">
    <mxGraphModel dx="1865" dy="1025" grid="1" gridSize="10" guides="1" tooltips="1" connect="1" arrows="1" fold="1" page="1" pageScale="1" pageWidth="827" pageHeight="1169" math="0" shadow="0">
      <root>
        <mxCell id="WIyWlLk6GJQsqaUBKTNV-0" />
        <mxCell id="WIyWlLk6GJQsqaUBKTNV-1" parent="WIyWlLk6GJQsqaUBKTNV-0" />
        <mxCell id="K6wyJHr7EwT5NFfYMl7e-13" value="PanelControl* class relationships" style="swimlane;whiteSpace=wrap;html=1;fillColor=#f5f5f5;fontColor=#333333;strokeColor=#666666;" parent="WIyWlLk6GJQsqaUBKTNV-1" vertex="1">
          <mxGeometry width="1580" height="640" as="geometry">
            <mxRectangle width="190" height="30" as="alternateBounds" />
          </mxGeometry>
        </mxCell>
        <mxCell id="K6wyJHr7EwT5NFfYMl7e-9" value="" style="endArrow=block;startArrow=none;endFill=0;startFill=0;endSize=8;html=1;verticalAlign=bottom;dashed=1;labelBackgroundColor=none;rounded=0;entryX=1;entryY=0.5;entryDx=0;entryDy=0;strokeWidth=2;exitX=0.5;exitY=0;exitDx=0;exitDy=0;" parent="K6wyJHr7EwT5NFfYMl7e-13" source="IPPN8TBCCX2I6qz2lkMm-8" target="IPPN8TBCCX2I6qz2lkMm-3" edge="1">
          <mxGeometry width="160" relative="1" as="geometry">
            <mxPoint x="1240" y="270" as="sourcePoint" />
            <mxPoint x="520" y="160" as="targetPoint" />
          </mxGeometry>
        </mxCell>
        <mxCell id="K6wyJHr7EwT5NFfYMl7e-20" value="implement" style="edgeLabel;html=1;align=center;verticalAlign=middle;resizable=0;points=[];" parent="K6wyJHr7EwT5NFfYMl7e-9" vertex="1" connectable="0">
          <mxGeometry x="-0.3138" y="-1" relative="1" as="geometry">
            <mxPoint x="17" y="12" as="offset" />
          </mxGeometry>
        </mxCell>
        <mxCell id="K6wyJHr7EwT5NFfYMl7e-10" value="" style="html=1;verticalAlign=bottom;labelBackgroundColor=none;endArrow=block;endFill=1;rounded=0;exitX=0.5;exitY=0;exitDx=0;exitDy=0;strokeWidth=2;entryX=0.5;entryY=1.003;entryDx=0;entryDy=0;entryPerimeter=0;" parent="K6wyJHr7EwT5NFfYMl7e-13" source="IPPN8TBCCX2I6qz2lkMm-12" target="IPPN8TBCCX2I6qz2lkMm-7" edge="1">
          <mxGeometry width="160" relative="1" as="geometry">
            <mxPoint x="270" y="530" as="sourcePoint" />
            <mxPoint x="280" y="470" as="targetPoint" />
          </mxGeometry>
        </mxCell>
        <mxCell id="K6wyJHr7EwT5NFfYMl7e-24" value="Call the specific apis &lt;br&gt;through the PanelControlSdk library" style="edgeLabel;html=1;align=center;verticalAlign=middle;resizable=0;points=[];" parent="K6wyJHr7EwT5NFfYMl7e-10" vertex="1" connectable="0">
          <mxGeometry x="-0.1238" relative="1" as="geometry">
            <mxPoint as="offset" />
          </mxGeometry>
        </mxCell>
        <mxCell id="K6wyJHr7EwT5NFfYMl7e-11" value="" style="html=1;verticalAlign=bottom;labelBackgroundColor=none;endArrow=block;endFill=1;rounded=0;entryX=0;entryY=0.5;entryDx=0;entryDy=0;exitX=1;exitY=0.5;exitDx=0;exitDy=0;strokeWidth=2;" parent="K6wyJHr7EwT5NFfYMl7e-13" source="IPPN8TBCCX2I6qz2lkMm-7" target="IPPN8TBCCX2I6qz2lkMm-11" edge="1">
          <mxGeometry width="160" relative="1" as="geometry">
            <mxPoint x="240" y="340" as="sourcePoint" />
            <mxPoint x="560" y="340" as="targetPoint" />
          </mxGeometry>
        </mxCell>
        <mxCell id="K6wyJHr7EwT5NFfYMl7e-23" value="get the binder proxy of the IPanelControl&lt;br&gt;&amp;nbsp;through bindeService()" style="edgeLabel;html=1;align=center;verticalAlign=middle;resizable=0;points=[];" parent="K6wyJHr7EwT5NFfYMl7e-11" vertex="1" connectable="0">
          <mxGeometry x="-0.0667" y="1" relative="1" as="geometry">
            <mxPoint as="offset" />
          </mxGeometry>
        </mxCell>
        <mxCell id="K6wyJHr7EwT5NFfYMl7e-21" value="" style="endArrow=none;startArrow=diamondThin;endFill=0;startFill=0;html=1;verticalAlign=bottom;labelBackgroundColor=none;strokeWidth=2;startSize=8;endSize=8;rounded=0;entryX=0;entryY=0.5;entryDx=0;entryDy=0;exitX=0.5;exitY=0;exitDx=0;exitDy=0;" parent="K6wyJHr7EwT5NFfYMl7e-13" source="IPPN8TBCCX2I6qz2lkMm-4" target="IPPN8TBCCX2I6qz2lkMm-3" edge="1">
          <mxGeometry width="160" relative="1" as="geometry">
            <mxPoint x="140" y="280" as="sourcePoint" />
            <mxPoint x="280" y="160" as="targetPoint" />
          </mxGeometry>
        </mxCell>
        <mxCell id="K6wyJHr7EwT5NFfYMl7e-22" value="IPanelControl is a reference of the PanelControlManager" style="edgeLabel;html=1;align=center;verticalAlign=middle;resizable=0;points=[];" parent="K6wyJHr7EwT5NFfYMl7e-21" vertex="1" connectable="0">
          <mxGeometry x="-0.3396" y="1" relative="1" as="geometry">
            <mxPoint x="-6" y="11" as="offset" />
          </mxGeometry>
        </mxCell>
        <mxCell id="IPPN8TBCCX2I6qz2lkMm-0" value="IPanelControl.aidl" style="swimlane;fontStyle=1;align=center;verticalAlign=top;childLayout=stackLayout;horizontal=1;startSize=26;horizontalStack=0;resizeParent=1;resizeParentMax=0;resizeLast=0;collapsible=1;marginBottom=0;whiteSpace=wrap;html=1;fillColor=#652CB3;fontColor=#FFFFFF;" parent="K6wyJHr7EwT5NFfYMl7e-13" vertex="1">
          <mxGeometry x="520" y="80" width="440" height="160" as="geometry">
            <mxRectangle x="320" y="80" width="140" height="30" as="alternateBounds" />
          </mxGeometry>
        </mxCell>
        <mxCell id="IPPN8TBCCX2I6qz2lkMm-1" value="&amp;nbsp;" style="text;strokeColor=none;fillColor=none;align=left;verticalAlign=top;spacingLeft=4;spacingRight=4;overflow=hidden;rotatable=0;points=[[0,0.5],[1,0.5]];portConstraint=eastwest;whiteSpace=wrap;html=1;" parent="IPPN8TBCCX2I6qz2lkMm-0" vertex="1">
          <mxGeometry y="26" width="440" height="26" as="geometry" />
        </mxCell>
        <mxCell id="IPPN8TBCCX2I6qz2lkMm-2" value="" style="line;strokeWidth=1;fillColor=none;align=left;verticalAlign=middle;spacingTop=-1;spacingLeft=3;spacingRight=3;rotatable=0;labelPosition=right;points=[];portConstraint=eastwest;strokeColor=inherit;" parent="IPPN8TBCCX2I6qz2lkMm-0" vertex="1">
          <mxGeometry y="52" width="440" height="8" as="geometry" />
        </mxCell>
        <mxCell id="IPPN8TBCCX2I6qz2lkMm-3" value="&lt;div&gt;+ aidlVersion () : Int&lt;/div&gt;&lt;div&gt;+ touchSendKeyToHID (byte functionKey, byte normalKey) : boolean&lt;/div&gt;&lt;div&gt;+ touchRegisterKeyEventListener (IPanelKeyEventListener listener) : boolean&lt;/div&gt;&lt;div&gt;+ touchUnregisterKeyEventListener (IPanelKeyEventListener listener) : void&lt;/div&gt;&lt;div&gt;......&lt;/div&gt;" style="text;strokeColor=none;fillColor=none;align=left;verticalAlign=top;spacingLeft=4;spacingRight=4;overflow=hidden;rotatable=0;points=[[0,0.5],[1,0.5]];portConstraint=eastwest;whiteSpace=wrap;html=1;" parent="IPPN8TBCCX2I6qz2lkMm-0" vertex="1">
          <mxGeometry y="60" width="440" height="100" as="geometry" />
        </mxCell>
        <mxCell id="IPPN8TBCCX2I6qz2lkMm-4" value="PanelControlManager" style="swimlane;fontStyle=1;align=center;verticalAlign=top;childLayout=stackLayout;horizontal=1;startSize=26;horizontalStack=0;resizeParent=1;resizeParentMax=0;resizeLast=0;collapsible=1;marginBottom=0;whiteSpace=wrap;html=1;fillColor=#F24726;fontColor=#FFFFFF;" parent="K6wyJHr7EwT5NFfYMl7e-13" vertex="1">
          <mxGeometry x="40" y="280" width="440" height="170" as="geometry">
            <mxRectangle x="40" y="280" width="160" height="30" as="alternateBounds" />
          </mxGeometry>
        </mxCell>
        <mxCell id="IPPN8TBCCX2I6qz2lkMm-5" value="- panelControl: IPanelControl?" style="text;strokeColor=none;fillColor=none;align=left;verticalAlign=top;spacingLeft=4;spacingRight=4;overflow=hidden;rotatable=0;points=[[0,0.5],[1,0.5]];portConstraint=eastwest;whiteSpace=wrap;html=1;" parent="IPPN8TBCCX2I6qz2lkMm-4" vertex="1">
          <mxGeometry y="26" width="440" height="26" as="geometry" />
        </mxCell>
        <mxCell id="IPPN8TBCCX2I6qz2lkMm-6" value="" style="line;strokeWidth=1;fillColor=none;align=left;verticalAlign=middle;spacingTop=-1;spacingLeft=3;spacingRight=3;rotatable=0;labelPosition=right;points=[];portConstraint=eastwest;strokeColor=inherit;" parent="IPPN8TBCCX2I6qz2lkMm-4" vertex="1">
          <mxGeometry y="52" width="440" height="8" as="geometry" />
        </mxCell>
        <mxCell id="IPPN8TBCCX2I6qz2lkMm-7" value="&lt;div&gt;+ connectService(): Boolean&lt;/div&gt;&lt;div&gt;+ disconnectService(): void&lt;/div&gt;&lt;div&gt;+ touchSendKeyToHID(functionKey: Byte, normalKey: Byte): Boolean&lt;/div&gt;&lt;div&gt;+ touchRegisterKeyEventListener(listener: IPanelKeyEventListener?): Boolean&lt;/div&gt;&lt;div&gt;+ touchUnregisterKeyEventListener(listener: IPanelKeyEventListener?): void&lt;/div&gt;&lt;div&gt;......&lt;/div&gt;" style="text;strokeColor=none;fillColor=none;align=left;verticalAlign=top;spacingLeft=4;spacingRight=4;overflow=hidden;rotatable=0;points=[[0,0.5],[1,0.5]];portConstraint=eastwest;whiteSpace=wrap;html=1;" parent="IPPN8TBCCX2I6qz2lkMm-4" vertex="1">
          <mxGeometry y="60" width="440" height="110" as="geometry" />
        </mxCell>
        <mxCell id="IPPN8TBCCX2I6qz2lkMm-8" value="PanelControlBinder" style="swimlane;fontStyle=1;align=center;verticalAlign=top;childLayout=stackLayout;horizontal=1;startSize=26;horizontalStack=0;resizeParent=1;resizeParentMax=0;resizeLast=0;collapsible=1;marginBottom=0;whiteSpace=wrap;html=1;fillColor=#12CDD4;fontColor=#FFFFFF;" parent="K6wyJHr7EwT5NFfYMl7e-13" vertex="1">
          <mxGeometry x="1000" y="280" width="460" height="160" as="geometry" />
        </mxCell>
        <mxCell id="IPPN8TBCCX2I6qz2lkMm-9" value="&amp;nbsp;" style="text;strokeColor=none;fillColor=none;align=left;verticalAlign=top;spacingLeft=4;spacingRight=4;overflow=hidden;rotatable=0;points=[[0,0.5],[1,0.5]];portConstraint=eastwest;whiteSpace=wrap;html=1;" parent="IPPN8TBCCX2I6qz2lkMm-8" vertex="1">
          <mxGeometry y="26" width="460" height="26" as="geometry" />
        </mxCell>
        <mxCell id="IPPN8TBCCX2I6qz2lkMm-10" value="" style="line;strokeWidth=1;fillColor=none;align=left;verticalAlign=middle;spacingTop=-1;spacingLeft=3;spacingRight=3;rotatable=0;labelPosition=right;points=[];portConstraint=eastwest;strokeColor=inherit;" parent="IPPN8TBCCX2I6qz2lkMm-8" vertex="1">
          <mxGeometry y="52" width="460" height="8" as="geometry" />
        </mxCell>
        <mxCell id="IPPN8TBCCX2I6qz2lkMm-11" value="&lt;div&gt;+ touchSendKeyToHID(functionKey: Byte, normalKey: Byte): Boolean&lt;/div&gt;&lt;div&gt;+ touchRegisterKeyEventListener(listener: IPanelKeyEventListener?): Boolean&lt;/div&gt;&lt;div&gt;+ touchUnregisterKeyEventListener(listener: IPanelKeyEventListener?)&lt;/div&gt;&lt;div&gt;......&lt;/div&gt;" style="text;strokeColor=none;fillColor=none;align=left;verticalAlign=top;spacingLeft=4;spacingRight=4;overflow=hidden;rotatable=0;points=[[0,0.5],[1,0.5]];portConstraint=eastwest;whiteSpace=wrap;html=1;" parent="IPPN8TBCCX2I6qz2lkMm-8" vertex="1">
          <mxGeometry y="60" width="460" height="100" as="geometry" />
        </mxCell>
        <mxCell id="IPPN8TBCCX2I6qz2lkMm-12" value="MainFragment" style="swimlane;fontStyle=1;align=center;verticalAlign=top;childLayout=stackLayout;horizontal=1;startSize=26;horizontalStack=0;resizeParent=1;resizeParentMax=0;resizeLast=0;collapsible=1;marginBottom=0;whiteSpace=wrap;html=1;fillColor=#2D9BF0;fontColor=#FFFFFF;" parent="K6wyJHr7EwT5NFfYMl7e-13" vertex="1">
          <mxGeometry x="120" y="520" width="280" height="86" as="geometry" />
        </mxCell>
        <mxCell id="IPPN8TBCCX2I6qz2lkMm-13" value="- panelControlManager: PanelControlManager?" style="text;strokeColor=none;fillColor=none;align=left;verticalAlign=top;spacingLeft=4;spacingRight=4;overflow=hidden;rotatable=0;points=[[0,0.5],[1,0.5]];portConstraint=eastwest;whiteSpace=wrap;html=1;" parent="IPPN8TBCCX2I6qz2lkMm-12" vertex="1">
          <mxGeometry y="26" width="280" height="26" as="geometry" />
        </mxCell>
        <mxCell id="IPPN8TBCCX2I6qz2lkMm-14" value="" style="line;strokeWidth=1;fillColor=none;align=left;verticalAlign=middle;spacingTop=-1;spacingLeft=3;spacingRight=3;rotatable=0;labelPosition=right;points=[];portConstraint=eastwest;strokeColor=inherit;" parent="IPPN8TBCCX2I6qz2lkMm-12" vertex="1">
          <mxGeometry y="52" width="280" height="8" as="geometry" />
        </mxCell>
        <mxCell id="IPPN8TBCCX2I6qz2lkMm-15" value="&amp;nbsp;" style="text;strokeColor=none;fillColor=none;align=left;verticalAlign=top;spacingLeft=4;spacingRight=4;overflow=hidden;rotatable=0;points=[[0,0.5],[1,0.5]];portConstraint=eastwest;whiteSpace=wrap;html=1;" parent="IPPN8TBCCX2I6qz2lkMm-12" vertex="1">
          <mxGeometry y="60" width="280" height="26" as="geometry" />
        </mxCell>
      </root>
    </mxGraphModel>
  </diagram>
</mxfile>
